<?xml version="1.0" standalone="no"?>
<!DOCTYPE svg PUBLIC "-//W3C//DTD SVG 20010904//EN"
 "http://www.w3.org/TR/2001/REC-SVG-20010904/DTD/svg10.dtd">
<svg version="1.0" xmlns="http://www.w3.org/2000/svg"
 width="500.000000pt" height="500.000000pt" viewBox="0 0 500.000000 500.000000"
 preserveAspectRatio="xMidYMid meet">
<metadata>
Created by potrace 1.11, written by Peter Selinger 2001-2013
</metadata>
<g transform="translate(0.000000,500.000000) scale(0.100000,-0.100000)"
fill="#000000" stroke="none">
<path d="M2250 4990 c-30 -4 -80 -11 -110 -14 -255 -33 -582 -142 -832 -277
-532 -289 -941 -759 -1150 -1324 -30 -78 -74 -221 -83 -260 -2 -11 -13 -60
-24 -110 -11 -49 -23 -114 -26 -144 -4 -30 -9 -63 -12 -75 -3 -12 -7 -127 -8
-256 -4 -310 18 -468 101 -750 51 -176 137 -377 220 -518 24 -40 44 -76 44
-79 0 -12 181 -255 241 -323 374 -426 858 -705 1409 -814 79 -16 122 -22 235
-36 88 -11 489 -5 575 9 36 6 83 13 105 17 22 3 85 17 140 30 841 200 1520
817 1794 1633 33 99 70 235 78 286 2 17 6 37 9 45 3 8 14 76 24 150 14 106 18
183 15 360 -2 124 -6 241 -9 260 -4 19 -11 67 -17 105 -22 141 -87 378 -143
516 l-27 66 -117 -3 c-64 -1 -247 -6 -407 -9 -483 -11 -427 -4 -546 -67 -57
-31 -153 -81 -214 -113 -60 -32 -146 -77 -190 -100 -263 -139 -316 -165 -342
-165 -16 0 -53 16 -83 35 -30 20 -75 45 -100 57 -25 11 -57 32 -71 45 -25 23
-26 23 -70 7 -67 -24 -210 -26 -294 -4 -68 17 -71 17 -90 0 -11 -10 -49 -34
-85 -53 -36 -19 -83 -46 -104 -61 -21 -14 -52 -26 -69 -26 -26 0 -213 93 -532
265 -33 18 -132 69 -220 115 -88 46 -174 93 -192 106 -40 31 -50 72 -27 120
16 33 197 225 269 284 230 190 524 331 814 390 126 25 133 25 169 -5 26 -22
34 -24 59 -14 45 17 191 20 258 4 56 -13 61 -12 78 6 27 29 57 32 150 15 223
-42 458 -135 640 -252 37 -24 77 -46 90 -49 12 -2 141 -7 287 -10 146 -3 352
-8 459 -10 l194 -5 -39 47 c-148 185 -295 330 -464 457 -41 31 -79 60 -85 64
-35 28 -217 134 -308 180 -228 113 -525 207 -752 237 -28 3 -64 9 -80 11 -51
9 -477 12 -535 4z m-956 -2001 c512 -324 493 -312 506 -333 14 -23 16 -271 2
-306 -7 -17 -60 -57 -164 -121 -181 -114 -528 -333 -648 -410 -147 -94 -190
-74 -251 119 -18 59 -34 112 -35 117 -1 6 -9 46 -18 90 -8 44 -18 96 -22 115
-12 72 -12 395 1 470 7 41 16 91 19 110 13 80 29 139 68 255 40 120 68 150
132 140 15 -3 200 -113 410 -246z m2901 221 c26 -24 96 -223 114 -326 6 -32
13 -70 16 -84 28 -138 28 -431 1 -593 -33 -195 -93 -378 -136 -419 -45 -41
-80 -32 -217 55 -65 42 -176 112 -248 157 -71 45 -168 106 -215 135 -47 30
-133 84 -191 121 -58 36 -111 75 -118 86 -18 28 -18 287 0 316 7 11 98 74 203
140 105 66 305 192 445 280 220 139 258 160 288 157 19 -2 45 -13 58 -25z
m-1072 -1298 c50 -27 151 -80 222 -117 72 -38 191 -100 265 -140 74 -39 170
-89 213 -110 136 -69 165 -111 130 -184 -15 -31 -189 -214 -263 -276 -165
-140 -386 -263 -600 -335 -138 -45 -146 -47 -247 -66 -150 -27 -184 2 -178
151 2 44 6 154 10 245 3 91 8 199 10 240 2 41 7 157 10 257 3 100 8 194 11
210 7 38 30 61 89 89 28 13 78 41 113 63 75 47 77 46 215 -27z m-996 8 c43
-27 83 -50 89 -50 18 0 65 -41 74 -65 5 -12 12 -105 15 -206 9 -239 12 -308
21 -519 13 -319 12 -345 -14 -373 -13 -14 -35 -28 -49 -32 -50 -12 -317 53
-457 112 -81 34 -228 107 -263 131 -15 10 -48 32 -73 48 -95 61 -164 119 -275
229 -152 150 -180 197 -151 253 18 35 32 44 231 147 83 43 182 95 220 115 39
20 126 67 195 103 69 36 163 86 210 111 49 26 99 46 117 46 22 0 57 -16 110
-50z"/>
<path d="M2371 4204 c-347 -93 -477 -528 -239 -798 147 -168 406 -215 600
-109 50 27 158 119 158 133 0 5 -109 8 -242 7 l-243 -2 -50 27 c-248 132 -219
481 48 564 26 8 109 11 265 8 l227 -3 -60 55 c-127 117 -302 162 -464 118z"/>
<path d="M2412 3939 c-46 -14 -118 -88 -131 -135 -32 -117 17 -225 123 -269
38 -16 186 -16 776 0 282 8 671 17 820 20 284 6 858 20 978 24 22 1 22 2 22
156 l0 155 -52 1 c-29 1 -93 3 -143 4 -252 7 -630 17 -790 20 -99 2 -292 6
-430 10 -137 3 -320 8 -405 10 -483 12 -738 13 -768 4z"/>
</g>
</svg>
