<?xml version="1.0" standalone="no"?>
<!DOCTYPE svg PUBLIC "-//W3C//DTD SVG 20010904//EN"
 "http://www.w3.org/TR/2001/REC-SVG-20010904/DTD/svg10.dtd">
<svg version="1.0" xmlns="http://www.w3.org/2000/svg"
 width="500.000000pt" height="500.000000pt" viewBox="0 0 500.000000 500.000000"
 preserveAspectRatio="xMidYMid meet">
<metadata>
Created by potrace 1.11, written by Peter Selinger 2001-2013
</metadata>
<g transform="translate(0.000000,500.000000) scale(0.100000,-0.100000)"
fill="#000000" stroke="none">
<path d="M1 3843 c1 -1005 3 -1144 14 -1050 41 333 158 686 322 965 118 202
250 368 429 542 406 393 928 634 1504 693 19 2 -484 5 -1117 5 l-1153 2 1
-1157z"/>
<path d="M2793 4985 c468 -57 913 -245 1282 -542 109 -87 311 -291 388 -391
l48 -62 -33 0 c-18 0 -231 5 -473 11 l-440 11 -75 48 c-203 129 -496 240 -701
265 -50 6 -58 4 -85 -18 -29 -24 -30 -24 -94 -11 -36 7 -85 14 -110 14 -25 0
-74 -7 -110 -14 -64 -13 -65 -13 -94 11 -27 22 -36 24 -84 18 -303 -38 -675
-212 -932 -437 -103 -90 -214 -211 -236 -256 -21 -44 -10 -86 29 -116 65 -47
917 -486 945 -486 15 0 52 16 82 36 30 20 77 46 103 59 27 13 58 32 71 44 21
20 23 20 71 4 68 -22 242 -22 310 0 49 16 50 16 75 -7 14 -13 41 -31 62 -39
20 -8 64 -34 99 -56 36 -23 75 -41 91 -41 18 0 189 84 446 219 l417 219 375 6
c206 4 420 9 476 12 l101 7 35 -89 c79 -198 138 -443 161 -674 2 -19 5 165 5
408 l2 444 -117 -6 c-65 -3 -637 -18 -1271 -33 -915 -21 -1160 -24 -1192 -14
-87 26 -150 113 -150 206 0 93 63 180 150 206 32 10 277 7 1192 -14 634 -15
1206 -30 1271 -33 l117 -6 0 556 0 556 -1157 -1 c-1005 -1 -1144 -3 -1050 -14z
m-168 -780 c81 -21 149 -60 215 -123 l55 -53 -240 3 c-232 3 -242 2 -290 -20
-195 -90 -242 -343 -92 -490 23 -23 65 -51 92 -64 48 -22 57 -23 288 -20 152
3 237 0 237 -6 0 -17 -103 -105 -156 -134 -141 -77 -325 -77 -468 0 -65 34
-164 133 -198 198 -77 143 -77 325 0 468 35 65 133 164 198 198 105 57 243 73
359 43z"/>
<path d="M835 3231 c-36 -16 -54 -45 -89 -151 -126 -378 -124 -800 5 -1177 37
-107 63 -138 117 -137 31 0 107 44 477 278 242 153 445 286 452 295 17 22 17
300 0 322 -20 27 -884 569 -914 574 -16 2 -37 1 -48 -4z"/>
<path d="M4080 3222 c-83 -46 -866 -546 -877 -561 -17 -22 -17 -300 0 -322 7
-9 210 -142 452 -295 370 -234 446 -278 477 -278 57 -1 81 30 121 152 127 382
125 802 -4 1179 -18 51 -42 101 -54 113 -32 30 -74 34 -115 12z"/>
<path d="M4986 2228 c-4 -46 -18 -137 -31 -203 -107 -529 -338 -954 -721
-1325 -406 -393 -928 -634 -1504 -693 -19 -2 484 -5 1118 -5 l1152 -2 0 1155
c0 635 -2 1155 -4 1155 -2 0 -6 -37 -10 -82z"/>
<path d="M2 1153 l-2 -1153 1158 1 c1004 1 1143 3 1049 14 -704 85 -1332 459
-1749 1040 -248 346 -406 771 -451 1215 -2 19 -5 -484 -5 -1117z"/>
<path d="M1525 1727 c-420 -221 -461 -245 -477 -277 -9 -20 -14 -47 -11 -62 3
-14 40 -66 83 -116 233 -267 566 -470 923 -561 170 -44 216 -48 250 -21 16 13
32 32 36 44 7 17 -13 642 -31 1008 -4 77 -20 100 -85 129 -23 10 -70 36 -105
58 -39 26 -73 41 -92 40 -20 0 -193 -85 -491 -242z"/>
<path d="M2891 1929 c-35 -23 -83 -50 -105 -60 -64 -28 -80 -51 -84 -122 -15
-285 -38 -996 -31 -1013 4 -12 20 -31 36 -44 33 -26 73 -23 234 16 345 83 691
289 932 555 37 41 74 89 83 107 21 44 10 86 -29 116 -65 47 -917 486 -945 486
-16 0 -55 -18 -91 -41z"/>
</g>
</svg>
